<svg width="28" height="28" viewBox="0 0 28 28" fill="none" xmlns="http://www.w3.org/2000/svg">
<g clip-path="url(#clip0_31_529)">
<path opacity="0.2" d="M3.5 20.125C3.5 20.5891 3.68437 21.0342 4.01256 21.3624C4.34075 21.6906 4.78587 21.875 5.25 21.875H7C7.46413 21.875 7.90925 21.6906 8.23744 21.3624C8.56563 21.0342 8.75 20.5891 8.75 20.125V15.75C8.75 15.2859 8.56563 14.8408 8.23744 14.5126C7.90925 14.1844 7.46413 14 7 14H3.5V20.125Z" fill="black" fill-opacity="0.75"/>
<path opacity="0.2" d="M21 14C20.5359 14 20.0908 14.1844 19.7626 14.5126C19.4344 14.8408 19.25 15.2859 19.25 15.75V20.125C19.25 20.5891 19.4344 21.0342 19.7626 21.3624C20.0908 21.6906 20.5359 21.875 21 21.875H24.5V14H21Z" fill="black" fill-opacity="0.75"/>
<path d="M24.5 21.875V22.75C24.5 23.6783 24.1313 24.5685 23.4749 25.2249C22.8185 25.8813 21.9283 26.25 21 26.25H14.875" stroke="black" stroke-opacity="0.75" stroke-width="2" stroke-linecap="round" stroke-linejoin="round"/>
<path d="M24.5 14H21C20.5359 14 20.0908 14.1844 19.7626 14.5126C19.4344 14.8408 19.25 15.2859 19.25 15.75V20.125C19.25 20.5891 19.4344 21.0342 19.7626 21.3624C20.0908 21.6906 20.5359 21.875 21 21.875H24.5V14ZM24.5 14C24.5 12.6211 24.2284 11.2557 23.7007 9.98182C23.1731 8.70791 22.3996 7.55039 21.4246 6.57538C20.4496 5.60036 19.2921 4.82694 18.0182 4.29926C16.7443 3.77159 15.3789 3.5 14 3.5C12.6211 3.5 11.2557 3.77159 9.98182 4.29926C8.70791 4.82694 7.55039 5.60036 6.57538 6.57538C5.60036 7.55039 4.82694 8.70791 4.29926 9.98182C3.77159 11.2557 3.5 12.6211 3.5 14M3.5 14V20.125C3.5 20.5891 3.68437 21.0342 4.01256 21.3624C4.34075 21.6906 4.78587 21.875 5.25 21.875H7C7.46413 21.875 7.90925 21.6906 8.23744 21.3624C8.56563 21.0342 8.75 20.5891 8.75 20.125V15.75C8.75 15.2859 8.56563 14.8408 8.23744 14.5126C7.90925 14.1844 7.46413 14 7 14H3.5Z" stroke="black" stroke-opacity="0.75" stroke-width="2" stroke-linecap="round" stroke-linejoin="round"/>
</g>
<defs>
<clipPath id="clip0_31_529">
<rect width="28" height="28" fill="white"/>
</clipPath>
</defs>
</svg>
