<svg width="49" height="39" viewBox="0 0 49 39" fill="none" xmlns="http://www.w3.org/2000/svg">
<path fill-rule="evenodd" clip-rule="evenodd" d="M0 5C0 2.23858 2.23858 0 5 0H22C24.7614 0 27 2.23858 27 5V6H16C13.2386 6 11 8.23858 11 11V27H5C2.23858 27 0 24.7614 0 22V5ZM22 27H11V28C11 30.7614 13.2386 33 16 33H22V34C22 36.7614 24.2386 39 27 39H44C46.7614 39 49 36.7614 49 34V17C49 14.2386 46.7614 12 44 12H38V11C38 8.23858 35.7614 6 33 6H27V12C24.2386 12 22 14.2386 22 17V27ZM22 27C24.7614 27 27 24.7614 27 22V12H38V28C38 30.7614 35.7614 33 33 33H22V27Z" fill="#FE8C3E"/>
</svg>
